<!--?xml version="1.0" encoding="utf-8"?-->
<!-- Generator: Adobe Illustrator 22.0.1, SVG Export Plug-In . SVG Version: 6.00 Build 0)  -->
<svg version="1.1" id="Ebene_1" xmlns="http://www.w3.org/2000/svg" xmlns:xlink="http://www.w3.org/1999/xlink" x="0px" y="0px" viewBox="0 0 422 384.1" style="" xml:space="preserve">
<style type="text/css">
	.st0{fill:none;stroke:#FFD700;stroke-width:2.7;stroke-linejoin:round;stroke-miterlimit:10;}
	.st1{fill:#4AB16F;}
	.st2{fill:none;stroke:#FFD700;stroke-width:2.5006;stroke-linejoin:round;stroke-miterlimit:10;}
	.st3{fill:none;stroke:#FFD700;stroke-width:2.7;stroke-miterlimit:10;}
	.st4{fill:none;stroke:#FFD700;stroke-width:175;stroke-miterlimit:10;}
</style>
<path class="st0 VAuMiCnG_0" d="M353.6,321.7L360.6,321.7L360.6,338.9"></path>
<path class="st0 VAuMiCnG_1" d="M357.4,337.6L367,337.6"></path>
<path class="st0 VAuMiCnG_2" d="M369,331.3h2.7v3.7c0,1.4,1.1,2.5,2.5,2.5h4.1v-10.9l-3.6-5"></path>
<path class="st0 VAuMiCnG_3" d="M366,314.2L369,314.2L369,321.7L378.3,321.7L378.3,313"></path>
<path class="st1 VAuMiCnG_4" d="M388.1,311.7"></path>
<path class="st0 VAuMiCnG_5" d="M388.1,311.7L391.6,316.5"></path>
<path class="st0 VAuMiCnG_6" d="M385.4,318.9L395.5,312.8"></path>
<path class="st0 VAuMiCnG_7" d="M385.4,323.2L397.5,315.8"></path>
<path class="st0 VAuMiCnG_8" d="M393.1,318.5L393.3,333.3L385.4,338.2"></path>
<path class="st0 VAuMiCnG_9" d="M400.2,321.7L415.6,321.7"></path>
<path class="st2 VAuMiCnG_10" d="M359.1,344.4A3.2,3.2 0,1,1 365.5,344.4A3.2,3.2 0,1,1 359.1,344.4"></path>
<path class="st0 VAuMiCnG_11" d="M401.5,344.4c0,1.8,1.4,3.2,3.2,3.2s3.2-1.4,3.2-3.2v-8.1"></path>
<path class="st3 VAuMiCnG_12" d="M402.4,336.3L407.9,328.4L413.4,336.3Z"></path>
<g>
	<g>
		<path class="st4 VAuMiCnG_13" d="M210.6,95.5c-48.6,0-87.9,39.3-87.9,87.9s39.3,87.9,87.9,87.9s87.9-39.3,87.9-87.9S259.2,95.5,210.6,95.5
			L210.6,95.5z"></path>
	</g>
</g>
<style data-made-with="vivus-instant">.VAuMiCnG_0{stroke-dasharray:25 27;stroke-dashoffset:26;animation:VAuMiCnG_draw 1500ms ease 0ms forwards;}.VAuMiCnG_1{stroke-dasharray:10 12;stroke-dashoffset:11;animation:VAuMiCnG_draw 1500ms ease 115ms forwards;}.VAuMiCnG_2{stroke-dasharray:32 34;stroke-dashoffset:33;animation:VAuMiCnG_draw 1500ms ease 230ms forwards;}.VAuMiCnG_3{stroke-dasharray:29 31;stroke-dashoffset:30;animation:VAuMiCnG_draw 1500ms ease 346ms forwards;}.VAuMiCnG_4{stroke-dasharray:0 2;stroke-dashoffset:1;animation:VAuMiCnG_draw 1500ms ease 461ms forwards;}.VAuMiCnG_5{stroke-dasharray:6 8;stroke-dashoffset:7;animation:VAuMiCnG_draw 1500ms ease 576ms forwards;}.VAuMiCnG_6{stroke-dasharray:12 14;stroke-dashoffset:13;animation:VAuMiCnG_draw 1500ms ease 692ms forwards;}.VAuMiCnG_7{stroke-dasharray:15 17;stroke-dashoffset:16;animation:VAuMiCnG_draw 1500ms ease 807ms forwards;}.VAuMiCnG_8{stroke-dasharray:25 27;stroke-dashoffset:26;animation:VAuMiCnG_draw 1500ms ease 923ms forwards;}.VAuMiCnG_9{stroke-dasharray:16 18;stroke-dashoffset:17;animation:VAuMiCnG_draw 1500ms ease 1038ms forwards;}.VAuMiCnG_10{stroke-dasharray:21 23;stroke-dashoffset:22;animation:VAuMiCnG_draw 1500ms ease 1153ms forwards;}.VAuMiCnG_11{stroke-dasharray:19 21;stroke-dashoffset:20;animation:VAuMiCnG_draw 1500ms ease 1269ms forwards;}.VAuMiCnG_12{stroke-dasharray:31 33;stroke-dashoffset:32;animation:VAuMiCnG_draw 1500ms ease 1384ms forwards;}.VAuMiCnG_13{stroke-dasharray:553 555;stroke-dashoffset:554;animation:VAuMiCnG_draw 1500ms ease 1500ms forwards;}@keyframes VAuMiCnG_draw{100%{stroke-dashoffset:0;}}@keyframes VAuMiCnG_fade{0%{stroke-opacity:1;}94.44444444444444%{stroke-opacity:1;}100%{stroke-opacity:0;}}</style></svg>
